<svg width="106" height="106" viewBox="0 0 106 106" fill="none" xmlns="http://www.w3.org/2000/svg">
<rect width="106" height="106" rx="53" fill="white"/>
<path d="M53 13C30.92 13 13 30.92 13 53C13 75.08 30.92 93 53 93C75.08 93 93 75.08 93 53C93 30.92 75.08 13 53 13ZM53 25C59.64 25 65 30.36 65 37C65 43.64 59.64 49 53 49C46.36 49 41 43.64 41 37C41 30.36 46.36 25 53 25ZM53 81.8C43 81.8 34.16 76.68 29 68.92C29.12 60.96 45 56.6 53 56.6C60.96 56.6 76.88 60.96 77 68.92C71.84 76.68 63 81.8 53 81.8Z" fill="#0984E3"/>
</svg>
