<svg width="34" height="34" viewBox="0 0 34 34" fill="none" xmlns="http://www.w3.org/2000/svg">
<path d="M29.4952 18.645C29.5652 18.12 29.6002 17.5775 29.6002 17C29.6002 16.44 29.5652 15.88 29.4777 15.355L33.0302 12.59C33.3452 12.345 33.4327 11.8725 33.2402 11.5225L29.8802 5.7125C29.6702 5.3275 29.2327 5.205 28.8477 5.3275L24.6652 7.0075C23.7902 6.3425 22.8627 5.7825 21.8302 5.3625L21.2002 0.917504C21.1302 0.497504 20.7802 0.200005 20.3602 0.200005H13.6402C13.2202 0.200005 12.8877 0.497504 12.8177 0.917504L12.1877 5.3625C11.1552 5.7825 10.2102 6.36 9.35269 7.0075L5.17019 5.3275C4.78519 5.1875 4.34769 5.3275 4.13769 5.7125L0.795192 11.5225C0.585192 11.89 0.655192 12.345 1.00519 12.59L4.55769 15.355C4.47019 15.88 4.40019 16.4575 4.40019 17C4.40019 17.5425 4.43519 18.12 4.52269 18.645L0.970192 21.41C0.655192 21.655 0.567692 22.1275 0.760192 22.4775L4.12019 28.2875C4.33019 28.6725 4.76769 28.795 5.15269 28.6725L9.33519 26.9925C10.2102 27.6575 11.1377 28.2175 12.1702 28.6375L12.8002 33.0825C12.8877 33.5025 13.2202 33.8 13.6402 33.8H20.3602C20.7802 33.8 21.1302 33.5025 21.1827 33.0825L21.8127 28.6375C22.8452 28.2175 23.7902 27.6575 24.6477 26.9925L28.8302 28.6725C29.2152 28.8125 29.6527 28.6725 29.8627 28.2875L33.2227 22.4775C33.4327 22.0925 33.3452 21.655 33.0127 21.41L29.4952 18.645ZM17.0002 23.3C13.5352 23.3 10.7002 20.465 10.7002 17C10.7002 13.535 13.5352 10.7 17.0002 10.7C20.4652 10.7 23.3002 13.535 23.3002 17C23.3002 20.465 20.4652 23.3 17.0002 23.3Z" fill="white"/>
</svg>
