<svg width="72" height="72" viewBox="0 0 72 72" fill="none" xmlns="http://www.w3.org/2000/svg">
<path d="M36 0C16.1604 0 0 16.1604 0 36C0 55.8396 16.1604 72 36 72C55.8396 72 72 55.8396 72 36C72 16.1604 55.8396 0 36 0ZM36 7.2C51.9484 7.2 64.8 20.0516 64.8 36C64.8 42.6711 62.5293 48.782 58.7461 53.6555L18.3445 13.2539C23.218 9.47066 29.3289 7.2 36 7.2ZM13.2539 18.3445L53.6555 58.7461C48.782 62.5293 42.6711 64.8 36 64.8C20.0516 64.8 7.2 51.9484 7.2 36C7.2 29.3289 9.47066 23.218 13.2539 18.3445Z" fill="#FF7979"/>
</svg>
