<?xml version="1.0" encoding="utf-8"?>
<!-- Generator: Adobe Illustrator 24.3.0, SVG Export Plug-In . SVG Version: 6.00 Build 0)  -->
<svg version="1.1" id="Layer_1" xmlns="http://www.w3.org/2000/svg" xmlns:xlink="http://www.w3.org/1999/xlink" x="0px" y="0px"
	 viewBox="0 0 24 24" style="enable-background:new 0 0 24 24;" xml:space="preserve">
<style type="text/css">
	.st0{fill:#FFFFFF;}
	.st1{fill:#0984E3;}
</style>
<g>
	<g>
		<path class="st0" d="M8.56,20.8C7.49,20.36,6.64,19.71,6,18.85c-0.64-0.86-0.98-1.89-1.01-3.1h4.78c0.07,0.68,0.31,1.2,0.71,1.56
			c0.4,0.36,0.93,0.54,1.58,0.54c0.67,0,1.19-0.15,1.58-0.46c0.38-0.31,0.58-0.73,0.58-1.27c0-0.46-0.15-0.83-0.46-1.13
			c-0.31-0.3-0.68-0.54-1.13-0.74c-0.45-0.19-1.08-0.41-1.9-0.66c-1.19-0.37-2.16-0.74-2.92-1.1c-0.75-0.37-1.4-0.91-1.94-1.63
			S5.04,9.21,5.04,8.06C5.04,6.34,5.66,5,6.9,4.03s2.86-1.46,4.86-1.46c2.03,0,3.67,0.49,4.91,1.46c1.24,0.97,1.91,2.32,2,4.06
			h-4.86c-0.04-0.6-0.25-1.06-0.66-1.41c-0.4-0.34-0.92-0.51-1.55-0.51c-0.54,0-0.98,0.14-1.31,0.43c-0.33,0.29-0.5,0.71-0.5,1.25
			c0,0.6,0.28,1.06,0.84,1.39c0.56,0.33,1.44,0.69,2.63,1.08c1.19,0.4,2.16,0.79,2.9,1.16c0.74,0.37,1.39,0.9,1.93,1.6
			c0.54,0.7,0.81,1.6,0.81,2.71c0,1.05-0.27,2.01-0.8,2.86c-0.53,0.86-1.31,1.54-2.32,2.05c-1.02,0.51-2.22,0.76-3.6,0.76
			C10.84,21.45,9.63,21.24,8.56,20.8z"/>
	</g>
	<path class="st1" d="M22.7,22.65c-2.24,2.24-8.83-0.74-14.74-6.65C2.05,10.09-0.93,3.5,1.31,1.26C2.27,0.3,4.04,0.31,6.22,1.1
		C5.18,0.93,4.36,1.08,3.85,1.58c-1.79,1.79,0.9,7.38,6.02,12.5c5.11,5.11,10.69,7.8,12.49,6.01c0.52-0.52,0.66-1.35,0.47-2.4
		C23.66,19.88,23.66,21.69,22.7,22.65z"/>
</g>
</svg>
